<svg id="visual" viewBox="0 0 900 600" width="900" height="600" xmlns="http://www.w3.org/2000/svg" xmlns:xlink="http://www.w3.org/1999/xlink" version="1.1"><g stroke-width="1" stroke-linejoin="bevel"><path d="M478 306.1L498 336.1L526 314.9Z" fill="#003843" stroke="#003843"></path><path d="M502 357.6L507 351.6L498 336.1Z" fill="#5e802b" stroke="#5e802b"></path><path d="M498 336.1L507 351.6L526 314.9Z" fill="#226b44" stroke="#226b44"></path><path d="M452 408.4L502 357.6L418 391.6Z" fill="#001e2f" stroke="#001e2f"></path><path d="M549 346.7L544 330.9L507 351.6Z" fill="#003843" stroke="#003843"></path><path d="M507 351.6L544 330.9L526 314.9Z" fill="#81871b" stroke="#81871b"></path><path d="M541 262.9L501 262.9L526 314.9Z" fill="#81871b" stroke="#81871b"></path><path d="M526 314.9L501 262.9L478 306.1Z" fill="#001e2f" stroke="#001e2f"></path><path d="M516 370L549 346.7L507 351.6Z" fill="#002b3a" stroke="#002b3a"></path><path d="M502 357.6L516 370L507 351.6Z" fill="#3f7639" stroke="#3f7639"></path><path d="M579 296.3L553 280.3L544 330.9Z" fill="#001e2f" stroke="#001e2f"></path><path d="M544 330.9L553 280.3L526 314.9Z" fill="#003843" stroke="#003843"></path><path d="M502 357.6L510 372L516 370Z" fill="#004549" stroke="#004549"></path><path d="M553 280.3L541 262.9L526 314.9Z" fill="#226b44" stroke="#226b44"></path><path d="M452 408.4L507 379L502 357.6Z" fill="#00524c" stroke="#00524c"></path><path d="M502 357.6L507 379L510 372Z" fill="#00524c" stroke="#00524c"></path><path d="M510 372L507 379L516 370Z" fill="#81871b" stroke="#81871b"></path><path d="M550 379.7L565 347.7L549 346.7Z" fill="#001e2f" stroke="#001e2f"></path><path d="M550 379.7L549 346.7L516 370Z" fill="#001122" stroke="#001122"></path><path d="M549 346.7L565 347.7L544 330.9Z" fill="#004549" stroke="#004549"></path><path d="M565 347.7L579 296.3L544 330.9Z" fill="#81871b" stroke="#81871b"></path><path d="M553 280.3L594 219L541 262.9Z" fill="#001e2f" stroke="#001e2f"></path><path d="M524 412.4L550 379.7L516 370Z" fill="#003843" stroke="#003843"></path><path d="M594 219L526 229.3L541 262.9Z" fill="#001e2f" stroke="#001e2f"></path><path d="M541 262.9L526 229.3L501 262.9Z" fill="#003843" stroke="#003843"></path><path d="M526 229.3L457 226.1L501 262.9Z" fill="#001122" stroke="#001122"></path><path d="M501 262.9L457 226.1L478 306.1Z" fill="#004549" stroke="#004549"></path><path d="M507 379L524 412.4L516 370Z" fill="#3f7639" stroke="#3f7639"></path><path d="M565 347.7L609 297.1L579 296.3Z" fill="#3f7639" stroke="#3f7639"></path><path d="M579 296.3L594 219L553 280.3Z" fill="#065f4b" stroke="#065f4b"></path><path d="M619 289.9L609 297.1L650 342.9Z" fill="#004549" stroke="#004549"></path><path d="M418 391.6L498 336.1L478 306.1Z" fill="#3f7639" stroke="#3f7639"></path><path d="M418 391.6L502 357.6L498 336.1Z" fill="#001e2f" stroke="#001e2f"></path><path d="M507 379L487 425.7L524 412.4Z" fill="#00524c" stroke="#00524c"></path><path d="M502 195.4L463 206.3L457 226.1Z" fill="#001e2f" stroke="#001e2f"></path><path d="M409 175.4L414 241L457 226.1Z" fill="#226b44" stroke="#226b44"></path><path d="M457 226.1L414 241L478 306.1Z" fill="#003843" stroke="#003843"></path><path d="M452 408.4L487 425.7L507 379Z" fill="#81871b" stroke="#81871b"></path><path d="M375 288L418 391.6L478 306.1Z" fill="#226b44" stroke="#226b44"></path><path d="M511 188.6L502 195.4L526 229.3Z" fill="#002b3a" stroke="#002b3a"></path><path d="M526 229.3L502 195.4L457 226.1Z" fill="#3f7639" stroke="#3f7639"></path><path d="M650 342.9L609 297.1L565 347.7Z" fill="#002b3a" stroke="#002b3a"></path><path d="M609 297.1L619 289.9L579 296.3Z" fill="#001e2f" stroke="#001e2f"></path><path d="M530 166.7L511 188.6L532 166.3Z" fill="#5e802b" stroke="#5e802b"></path><path d="M434 141.6L409 175.4L463 206.3Z" fill="#002b3a" stroke="#002b3a"></path><path d="M524 412.4L576 414.4L550 379.7Z" fill="#003843" stroke="#003843"></path><path d="M550 379.7L576 414.4L565 347.7Z" fill="#3f7639" stroke="#3f7639"></path><path d="M533 447.3L576 414.4L524 412.4Z" fill="#001e2f" stroke="#001e2f"></path><path d="M414 241L375 288L478 306.1Z" fill="#002b3a" stroke="#002b3a"></path><path d="M619 289.9L594 219L579 296.3Z" fill="#065f4b" stroke="#065f4b"></path><path d="M487 425.7L533 447.3L524 412.4Z" fill="#065f4b" stroke="#065f4b"></path><path d="M357 259.9L363 293.3L375 288Z" fill="#002b3a" stroke="#002b3a"></path><path d="M355 345.6L370 374L418 391.6Z" fill="#001e2f" stroke="#001e2f"></path><path d="M595 446.6L590 421.6L576 414.4Z" fill="#001122" stroke="#001122"></path><path d="M576 414.4L590 421.6L565 347.7Z" fill="#3f7639" stroke="#3f7639"></path><path d="M355 345.6L418 391.6L375 288Z" fill="#5e802b" stroke="#5e802b"></path><path d="M418 391.6L403 458.3L452 408.4Z" fill="#81871b" stroke="#81871b"></path><path d="M452 408.4L477 481.1L487 425.7Z" fill="#81871b" stroke="#81871b"></path><path d="M507 496.1L549 458.4L533 447.3Z" fill="#00524c" stroke="#00524c"></path><path d="M370 374L375 386.7L418 391.6Z" fill="#065f4b" stroke="#065f4b"></path><path d="M532 166.3L511 188.6L526 229.3Z" fill="#5e802b" stroke="#5e802b"></path><path d="M434 141.6L463 206.3L452 129.4Z" fill="#3f7639" stroke="#3f7639"></path><path d="M594 219L532 166.3L526 229.3Z" fill="#226b44" stroke="#226b44"></path><path d="M368 399.7L376 394.4L375 386.7Z" fill="#003843" stroke="#003843"></path><path d="M375 386.7L376 394.4L418 391.6Z" fill="#004549" stroke="#004549"></path><path d="M363 293.3L355 345.6L375 288Z" fill="#065f4b" stroke="#065f4b"></path><path d="M370 374L368 399.7L375 386.7Z" fill="#003843" stroke="#003843"></path><path d="M590 421.6L650 342.9L565 347.7Z" fill="#001e2f" stroke="#001e2f"></path><path d="M617 194.4L606 197.6L594 219Z" fill="#00524c" stroke="#00524c"></path><path d="M386 201.1L357 259.9L414 241Z" fill="#004549" stroke="#004549"></path><path d="M414 241L357 259.9L375 288Z" fill="#226b44" stroke="#226b44"></path><path d="M363 293.3L335 306.1L355 345.6Z" fill="#3f7639" stroke="#3f7639"></path><path d="M386 201.1L414 241L409 175.4Z" fill="#81871b" stroke="#81871b"></path><path d="M477 481.1L533 447.3L487 425.7Z" fill="#065f4b" stroke="#065f4b"></path><path d="M533 447.3L549 458.4L576 414.4Z" fill="#001122" stroke="#001122"></path><path d="M617 194.4L594 219L673 251.1Z" fill="#003843" stroke="#003843"></path><path d="M594 219L577 161.4L532 166.3Z" fill="#00524c" stroke="#00524c"></path><path d="M324 430.4L368 399.7L370 374Z" fill="#065f4b" stroke="#065f4b"></path><path d="M376 394.4L403 458.3L418 391.6Z" fill="#065f4b" stroke="#065f4b"></path><path d="M409 175.4L457 226.1L463 206.3Z" fill="#5e802b" stroke="#5e802b"></path><path d="M344 242L345 267.9L357 259.9Z" fill="#003843" stroke="#003843"></path><path d="M357 259.9L345 267.9L363 293.3Z" fill="#004549" stroke="#004549"></path><path d="M549 458.4L595 446.6L576 414.4Z" fill="#3f7639" stroke="#3f7639"></path><path d="M590 421.6L633 428.7L650 342.9Z" fill="#001122" stroke="#001122"></path><path d="M673 251.1L594 219L619 289.9Z" fill="#004549" stroke="#004549"></path><path d="M606 197.6L577 161.4L594 219Z" fill="#00524c" stroke="#00524c"></path><path d="M463 206.3L502 195.4L452 129.4Z" fill="#226b44" stroke="#226b44"></path><path d="M390 172.4L409 175.4L386 154.7Z" fill="#001122" stroke="#001122"></path><path d="M345 267.9L335 306.1L363 293.3Z" fill="#001e2f" stroke="#001e2f"></path><path d="M355 345.6L324 430.4L370 374Z" fill="#3f7639" stroke="#3f7639"></path><path d="M628 159.6L577 161.4L606 197.6Z" fill="#3f7639" stroke="#3f7639"></path><path d="M502 195.4L511 188.6L452 129.4Z" fill="#001e2f" stroke="#001e2f"></path><path d="M403 458.3L477 481.1L452 408.4Z" fill="#00524c" stroke="#00524c"></path><path d="M549 458.4L585 464.4L595 446.6Z" fill="#00524c" stroke="#00524c"></path><path d="M390 172.4L374 196.1L386 201.1Z" fill="#001122" stroke="#001122"></path><path d="M386 201.1L344 242L357 259.9Z" fill="#00524c" stroke="#00524c"></path><path d="M374 196.1L344 242L386 201.1Z" fill="#001122" stroke="#001122"></path><path d="M345 267.9L272 249L335 306.1Z" fill="#001e2f" stroke="#001e2f"></path><path d="M597 488.3L585 464.4L562 507.1Z" fill="#001e2f" stroke="#001e2f"></path><path d="M597 488.3L633 428.7L595 446.6Z" fill="#004549" stroke="#004549"></path><path d="M595 446.6L633 428.7L590 421.6Z" fill="#065f4b" stroke="#065f4b"></path><path d="M368 399.7L403 458.3L376 394.4Z" fill="#003843" stroke="#003843"></path><path d="M409 175.4L390 172.4L386 201.1Z" fill="#001122" stroke="#001122"></path><path d="M539 134.7L530 166.7L532 166.3Z" fill="#81871b" stroke="#81871b"></path><path d="M577 161.4L539 134.7L532 166.3Z" fill="#81871b" stroke="#81871b"></path><path d="M714 255.1L673 251.1L650 342.9Z" fill="#002b3a" stroke="#002b3a"></path><path d="M650 342.9L673 251.1L619 289.9Z" fill="#003843" stroke="#003843"></path><path d="M452 129.4L511 188.6L530 166.7Z" fill="#002b3a" stroke="#002b3a"></path><path d="M474 559.3L507 496.1L477 481.1Z" fill="#226b44" stroke="#226b44"></path><path d="M477 481.1L507 496.1L533 447.3Z" fill="#3f7639" stroke="#3f7639"></path><path d="M539 134.7L452 129.4L530 166.7Z" fill="#5e802b" stroke="#5e802b"></path><path d="M633 428.7L680 377L650 342.9Z" fill="#81871b" stroke="#81871b"></path><path d="M368 399.7L382 460.7L403 458.3Z" fill="#226b44" stroke="#226b44"></path><path d="M403 458.3L402 495.6L477 481.1Z" fill="#001e2f" stroke="#001e2f"></path><path d="M344 457.7L382 460.7L368 399.7Z" fill="#226b44" stroke="#226b44"></path><path d="M434 141.6L386 154.7L409 175.4Z" fill="#5e802b" stroke="#5e802b"></path><path d="M390 172.4L386 154.7L374 196.1Z" fill="#001122" stroke="#001122"></path><path d="M374 196.1L310 212.3L344 242Z" fill="#5e802b" stroke="#5e802b"></path><path d="M449 87.6L386 154.7L434 141.6Z" fill="#5e802b" stroke="#5e802b"></path><path d="M577 161.4L548 119.7L539 134.7Z" fill="#001122" stroke="#001122"></path><path d="M539 134.7L472 97.7L452 129.4Z" fill="#004549" stroke="#004549"></path><path d="M615 115.9L548 119.7L577 161.4Z" fill="#001122" stroke="#001122"></path><path d="M628 159.6L606 197.6L617 194.4Z" fill="#226b44" stroke="#226b44"></path><path d="M673 204.3L628 159.6L617 194.4Z" fill="#226b44" stroke="#226b44"></path><path d="M585 464.4L597 488.3L595 446.6Z" fill="#3f7639" stroke="#3f7639"></path><path d="M733 410.9L698 372L680 377Z" fill="#065f4b" stroke="#065f4b"></path><path d="M562 507.1L585 464.4L549 458.4Z" fill="#065f4b" stroke="#065f4b"></path><path d="M714 255.1L673 204.3L673 251.1Z" fill="#001e2f" stroke="#001e2f"></path><path d="M673 251.1L673 204.3L617 194.4Z" fill="#003843" stroke="#003843"></path><path d="M507 496.1L562 507.1L549 458.4Z" fill="#001122" stroke="#001122"></path><path d="M733 410.9L680 377L720 465.6Z" fill="#00524c" stroke="#00524c"></path><path d="M680 377L698 372L650 342.9Z" fill="#5e802b" stroke="#5e802b"></path><path d="M382 460.7L402 495.6L403 458.3Z" fill="#81871b" stroke="#81871b"></path><path d="M507 496.1L571 568.3L562 507.1Z" fill="#001e2f" stroke="#001e2f"></path><path d="M270 389.9L324 430.4L355 345.6Z" fill="#002b3a" stroke="#002b3a"></path><path d="M382 460.7L347 470.6L402 495.6Z" fill="#81871b" stroke="#81871b"></path><path d="M324 430.4L344 457.7L368 399.7Z" fill="#00524c" stroke="#00524c"></path><path d="M298 162.3L310 212.3L374 196.1Z" fill="#004549" stroke="#004549"></path><path d="M344 242L272 249L345 267.9Z" fill="#004549" stroke="#004549"></path><path d="M335 306.1L270 389.9L355 345.6Z" fill="#3f7639" stroke="#3f7639"></path><path d="M548 119.7L472 97.7L539 134.7Z" fill="#002b3a" stroke="#002b3a"></path><path d="M452 129.4L449 87.6L434 141.6Z" fill="#003843" stroke="#003843"></path><path d="M698 372L714 255.1L650 342.9Z" fill="#004549" stroke="#004549"></path><path d="M298 497.4L347 470.6L344 457.7Z" fill="#001122" stroke="#001122"></path><path d="M344 457.7L347 470.6L382 460.7Z" fill="#065f4b" stroke="#065f4b"></path><path d="M643 105.7L615 115.9L628 159.6Z" fill="#5e802b" stroke="#5e802b"></path><path d="M628 159.6L615 115.9L577 161.4Z" fill="#5e802b" stroke="#5e802b"></path><path d="M548 119.7L486 56.9L472 97.7Z" fill="#226b44" stroke="#226b44"></path><path d="M601 86.6L615 115.9L643 105.7Z" fill="#81871b" stroke="#81871b"></path><path d="M450 63.9L449 87.6L472 97.7Z" fill="#065f4b" stroke="#065f4b"></path><path d="M472 97.7L449 87.6L452 129.4Z" fill="#001e2f" stroke="#001e2f"></path><path d="M386 154.7L339 123.6L374 196.1Z" fill="#81871b" stroke="#81871b"></path><path d="M310 212.3L272 249L344 242Z" fill="#065f4b" stroke="#065f4b"></path><path d="M601 86.6L567 78.6L548 119.7Z" fill="#5e802b" stroke="#5e802b"></path><path d="M235 290.3L270 389.9L335 306.1Z" fill="#3f7639" stroke="#3f7639"></path><path d="M324 430.4L298 497.4L344 457.7Z" fill="#003843" stroke="#003843"></path><path d="M270 389.9L279 413.9L324 430.4Z" fill="#226b44" stroke="#226b44"></path><path d="M615 115.9L601 86.6L548 119.7Z" fill="#81871b" stroke="#81871b"></path><path d="M643 105.7L628 159.6L702 151.7Z" fill="#065f4b" stroke="#065f4b"></path><path d="M475 562.3L474 559.3L456 562.1Z" fill="#00524c" stroke="#00524c"></path><path d="M456 562.1L474 559.3L477 481.1Z" fill="#002b3a" stroke="#002b3a"></path><path d="M655 551.4L698 485.4L597 488.3Z" fill="#003843" stroke="#003843"></path><path d="M419 47.6L339 123.6L386 154.7Z" fill="#001122" stroke="#001122"></path><path d="M310 212.3L240 181.4L272 249Z" fill="#001122" stroke="#001122"></path><path d="M702 151.7L628 159.6L673 204.3Z" fill="#004549" stroke="#004549"></path><path d="M714 255.1L722 193.4L673 204.3Z" fill="#81871b" stroke="#81871b"></path><path d="M720 465.6L680 377L633 428.7Z" fill="#226b44" stroke="#226b44"></path><path d="M698 372L763 293L714 255.1Z" fill="#5e802b" stroke="#5e802b"></path><path d="M761 230.1L726 186.3L722 193.4Z" fill="#065f4b" stroke="#065f4b"></path><path d="M698 485.4L633 428.7L597 488.3Z" fill="#065f4b" stroke="#065f4b"></path><path d="M456 562.1L477 481.1L402 495.6Z" fill="#004549" stroke="#004549"></path><path d="M474 559.3L475 562.3L507 496.1Z" fill="#00524c" stroke="#00524c"></path><path d="M339 123.6L298 162.3L374 196.1Z" fill="#3f7639" stroke="#3f7639"></path><path d="M486 56.9L450 63.9L472 97.7Z" fill="#002b3a" stroke="#002b3a"></path><path d="M449 87.6L419 47.6L386 154.7Z" fill="#00524c" stroke="#00524c"></path><path d="M354 541.1L402 495.6L347 470.6Z" fill="#00524c" stroke="#00524c"></path><path d="M401 568.3L456 562.1L402 495.6Z" fill="#3f7639" stroke="#3f7639"></path><path d="M419 47.6L334 120.6L339 123.6Z" fill="#065f4b" stroke="#065f4b"></path><path d="M339 123.6L334 120.6L298 162.3Z" fill="#003843" stroke="#003843"></path><path d="M421 26.7L477 -15.1L423 0Z" fill="#5e802b" stroke="#5e802b"></path><path d="M567 78.6L486 56.9L548 119.7Z" fill="#001e2f" stroke="#001e2f"></path><path d="M722 193.4L702 151.7L673 204.3Z" fill="#004549" stroke="#004549"></path><path d="M761 230.1L722 193.4L714 255.1Z" fill="#003843" stroke="#003843"></path><path d="M722 193.4L721 162.7L702 151.7Z" fill="#065f4b" stroke="#065f4b"></path><path d="M733 410.9L750 386.7L698 372Z" fill="#065f4b" stroke="#065f4b"></path><path d="M750 386.7L759 355.7L698 372Z" fill="#001e2f" stroke="#001e2f"></path><path d="M571 568.3L597 488.3L562 507.1Z" fill="#3f7639" stroke="#3f7639"></path><path d="M733 410.9L757 434.6L750 386.7Z" fill="#226b44" stroke="#226b44"></path><path d="M759 355.7L763 293L698 372Z" fill="#00524c" stroke="#00524c"></path><path d="M702 151.7L656 98.4L643 105.7Z" fill="#81871b" stroke="#81871b"></path><path d="M643 105.7L656 98.4L601 86.6Z" fill="#226b44" stroke="#226b44"></path><path d="M521 0L486 56.9L567 78.6Z" fill="#004549" stroke="#004549"></path><path d="M745 174.1L721 162.7L726 186.3Z" fill="#001e2f" stroke="#001e2f"></path><path d="M726 186.3L721 162.7L722 193.4Z" fill="#001e2f" stroke="#001e2f"></path><path d="M708 90.9L701 85.9L656 98.4Z" fill="#226b44" stroke="#226b44"></path><path d="M526 600L571 568.3L475 562.3Z" fill="#00524c" stroke="#00524c"></path><path d="M475 562.3L571 568.3L507 496.1Z" fill="#81871b" stroke="#81871b"></path><path d="M698 485.4L720 465.6L633 428.7Z" fill="#81871b" stroke="#81871b"></path><path d="M238 249L235 290.3L272 249Z" fill="#001e2f" stroke="#001e2f"></path><path d="M272 249L235 290.3L335 306.1Z" fill="#00524c" stroke="#00524c"></path><path d="M270 389.9L254 415.6L279 413.9Z" fill="#81871b" stroke="#81871b"></path><path d="M279 413.9L298 497.4L324 430.4Z" fill="#5e802b" stroke="#5e802b"></path><path d="M214 401.7L254 415.6L270 389.9Z" fill="#001122" stroke="#001122"></path><path d="M220 207.1L238 249L272 249Z" fill="#001e2f" stroke="#001e2f"></path><path d="M774 283.3L761 230.1L714 255.1Z" fill="#001e2f" stroke="#001e2f"></path><path d="M298 497.4L354 541.1L347 470.6Z" fill="#001122" stroke="#001122"></path><path d="M812 308.1L774 283.3L763 293Z" fill="#002b3a" stroke="#002b3a"></path><path d="M763 293L774 283.3L714 255.1Z" fill="#001e2f" stroke="#001e2f"></path><path d="M354 541.1L401 568.3L402 495.6Z" fill="#001122" stroke="#001122"></path><path d="M419 601.1L526 600L475 562.3Z" fill="#002b3a" stroke="#002b3a"></path><path d="M254 415.6L298 497.4L279 413.9Z" fill="#002b3a" stroke="#002b3a"></path><path d="M421 26.7L419 47.6L450 63.9Z" fill="#001e2f" stroke="#001e2f"></path><path d="M450 63.9L419 47.6L449 87.6Z" fill="#00524c" stroke="#00524c"></path><path d="M761 230.1L745 174.1L726 186.3Z" fill="#001e2f" stroke="#001e2f"></path><path d="M708 90.9L656 98.4L702 151.7Z" fill="#065f4b" stroke="#065f4b"></path><path d="M266 90.4L264 158.4L298 162.3Z" fill="#226b44" stroke="#226b44"></path><path d="M298 162.3L264 158.4L310 212.3Z" fill="#001e2f" stroke="#001e2f"></path><path d="M241 155.3L264 158.4L266 90.4Z" fill="#002b3a" stroke="#002b3a"></path><path d="M738 476.4L757 434.6L720 465.6Z" fill="#001e2f" stroke="#001e2f"></path><path d="M720 465.6L757 434.6L733 410.9Z" fill="#001e2f" stroke="#001e2f"></path><path d="M750 386.7L790 358.7L759 355.7Z" fill="#002b3a" stroke="#002b3a"></path><path d="M759 355.7L812 330.9L763 293Z" fill="#5e802b" stroke="#5e802b"></path><path d="M571 568.3L655 551.4L597 488.3Z" fill="#226b44" stroke="#226b44"></path><path d="M698 485.4L738 476.4L720 465.6Z" fill="#004549" stroke="#004549"></path><path d="M758 490.6L738 476.4L753 515.3Z" fill="#065f4b" stroke="#065f4b"></path><path d="M419 601.1L475 562.3L456 562.1Z" fill="#226b44" stroke="#226b44"></path><path d="M571 568.3L596 600L655 551.4Z" fill="#3f7639" stroke="#3f7639"></path><path d="M526 600L539 600L571 568.3Z" fill="#00524c" stroke="#00524c"></path><path d="M783 421.4L790 358.7L750 386.7Z" fill="#001122" stroke="#001122"></path><path d="M264 158.4L240 181.4L310 212.3Z" fill="#81871b" stroke="#81871b"></path><path d="M238 249L206 300.1L235 290.3Z" fill="#002b3a" stroke="#002b3a"></path><path d="M539 600L581 597.1L571 568.3Z" fill="#065f4b" stroke="#065f4b"></path><path d="M183 239.3L206 300.1L238 249Z" fill="#065f4b" stroke="#065f4b"></path><path d="M235 290.3L208 356L270 389.9Z" fill="#3f7639" stroke="#3f7639"></path><path d="M486 56.9L421 26.7L450 63.9Z" fill="#002b3a" stroke="#002b3a"></path><path d="M293 45.9L266 90.4L334 120.6Z" fill="#5e802b" stroke="#5e802b"></path><path d="M521 0L567 78.6L555 0Z" fill="#81871b" stroke="#81871b"></path><path d="M206 300.1L208 356L235 290.3Z" fill="#00524c" stroke="#00524c"></path><path d="M254 415.6L215 474.4L298 497.4Z" fill="#226b44" stroke="#226b44"></path><path d="M240 181.4L220 207.1L272 249Z" fill="#004549" stroke="#004549"></path><path d="M407 600L419 601.1L401 568.3Z" fill="#004549" stroke="#004549"></path><path d="M401 568.3L419 601.1L456 562.1Z" fill="#5e802b" stroke="#5e802b"></path><path d="M123 639.1L596 600L539 600Z" fill="#065f4b" stroke="#065f4b"></path><path d="M407 600L401 568.3L369 600Z" fill="#81871b" stroke="#81871b"></path><path d="M208 356L214 401.7L270 389.9Z" fill="#81871b" stroke="#81871b"></path><path d="M708 90.9L702 151.7L726 96.4Z" fill="#004549" stroke="#004549"></path><path d="M601 0L567 78.6L601 86.6Z" fill="#003843" stroke="#003843"></path><path d="M790 492.6L783 421.4L757 434.6Z" fill="#3f7639" stroke="#3f7639"></path><path d="M757 434.6L783 421.4L750 386.7Z" fill="#003843" stroke="#003843"></path><path d="M726 96.4L702 151.7L721 162.7Z" fill="#065f4b" stroke="#065f4b"></path><path d="M776 606.1L596 600L900 620.1Z" fill="#226b44" stroke="#226b44"></path><path d="M539 600L596 600L581 597.1Z" fill="#00524c" stroke="#00524c"></path><path d="M581 597.1L596 600L571 568.3Z" fill="#004549" stroke="#004549"></path><path d="M369 600L401 568.3L354 541.1Z" fill="#3f7639" stroke="#3f7639"></path><path d="M264 158.4L241 155.3L240 181.4Z" fill="#003843" stroke="#003843"></path><path d="M240 181.4L241 155.3L220 207.1Z" fill="#81871b" stroke="#81871b"></path><path d="M266 90.4L298 162.3L334 120.6Z" fill="#001e2f" stroke="#001e2f"></path><path d="M242 535.3L317 557.1L298 497.4Z" fill="#00524c" stroke="#00524c"></path><path d="M298 497.4L317 557.1L354 541.1Z" fill="#002b3a" stroke="#002b3a"></path><path d="M761 230.1L794 217.4L745 174.1Z" fill="#226b44" stroke="#226b44"></path><path d="M765 94.6L726 96.4L721 162.7Z" fill="#001e2f" stroke="#001e2f"></path><path d="M774 283.3L794 217.4L761 230.1Z" fill="#3f7639" stroke="#3f7639"></path><path d="M857 272.1L794 217.4L774 283.3Z" fill="#5e802b" stroke="#5e802b"></path><path d="M167 385.9L212 421.7L214 401.7Z" fill="#001e2f" stroke="#001e2f"></path><path d="M214 401.7L212 421.7L254 415.6Z" fill="#003843" stroke="#003843"></path><path d="M812 330.9L759 355.7L790 358.7Z" fill="#00524c" stroke="#00524c"></path><path d="M812 330.9L812 308.1L763 293Z" fill="#002b3a" stroke="#002b3a"></path><path d="M829 351.6L812 330.9L790 358.7Z" fill="#002b3a" stroke="#002b3a"></path><path d="M765 94.6L721 162.7L745 174.1Z" fill="#001e2f" stroke="#001e2f"></path><path d="M708 90.9L749 49.9L701 85.9Z" fill="#226b44" stroke="#226b44"></path><path d="M738 476.4L758 490.6L757 434.6Z" fill="#001e2f" stroke="#001e2f"></path><path d="M753 515.3L738 476.4L698 485.4Z" fill="#001122" stroke="#001122"></path><path d="M753 515.3L698 485.4L714 559.3Z" fill="#81871b" stroke="#81871b"></path><path d="M601 86.6L656 0L601 0Z" fill="#004549" stroke="#004549"></path><path d="M555 0L567 78.6L601 0Z" fill="#001122" stroke="#001122"></path><path d="M194 444.3L212 432.4L212 421.7Z" fill="#5e802b" stroke="#5e802b"></path><path d="M212 421.7L212 432.4L254 415.6Z" fill="#3f7639" stroke="#3f7639"></path><path d="M162 302.7L192 375.9L208 356Z" fill="#5e802b" stroke="#5e802b"></path><path d="M208 356L192 375.9L214 401.7Z" fill="#226b44" stroke="#226b44"></path><path d="M162 302.7L208 356L206 300.1Z" fill="#00524c" stroke="#00524c"></path><path d="M601 86.6L656 98.4L656 0Z" fill="#3f7639" stroke="#3f7639"></path><path d="M365 600L369 600L354 541.1Z" fill="#002b3a" stroke="#002b3a"></path><path d="M407 600L369 600L419 601.1Z" fill="#003843" stroke="#003843"></path><path d="M317 557.1L365 600L354 541.1Z" fill="#065f4b" stroke="#065f4b"></path><path d="M369 600L123 639.1L419 601.1Z" fill="#3f7639" stroke="#3f7639"></path><path d="M776 606.1L645 600L596 600Z" fill="#226b44" stroke="#226b44"></path><path d="M596 600L645 600L655 551.4Z" fill="#5e802b" stroke="#5e802b"></path><path d="M477 -15.1L421 26.7L486 56.9Z" fill="#00524c" stroke="#00524c"></path><path d="M375 0L334 120.6L419 47.6Z" fill="#00524c" stroke="#00524c"></path><path d="M714 559.3L698 485.4L655 551.4Z" fill="#226b44" stroke="#226b44"></path><path d="M859 402.7L790 358.7L783 421.4Z" fill="#81871b" stroke="#81871b"></path><path d="M859 402.7L829 351.6L790 358.7Z" fill="#065f4b" stroke="#065f4b"></path><path d="M375 0L419 47.6L421 26.7Z" fill="#226b44" stroke="#226b44"></path><path d="M158 208.1L183 239.3L220 207.1Z" fill="#00524c" stroke="#00524c"></path><path d="M711 587.1L714 559.3L655 551.4Z" fill="#001122" stroke="#001122"></path><path d="M158 208.1L220 207.1L144 182.3Z" fill="#065f4b" stroke="#065f4b"></path><path d="M220 207.1L183 239.3L238 249Z" fill="#001122" stroke="#001122"></path><path d="M610 -16.1L601 0L656 0Z" fill="#81871b" stroke="#81871b"></path><path d="M555 0L477 -15.1L521 0Z" fill="#002b3a" stroke="#002b3a"></path><path d="M521 0L477 -15.1L486 56.9Z" fill="#001122" stroke="#001122"></path><path d="M610 -16.1L477 -15.1L555 0Z" fill="#004549" stroke="#004549"></path><path d="M194 444.3L215 474.4L212 432.4Z" fill="#065f4b" stroke="#065f4b"></path><path d="M212 432.4L215 474.4L254 415.6Z" fill="#001122" stroke="#001122"></path><path d="M317 557.1L298 598.1L365 600Z" fill="#001e2f" stroke="#001e2f"></path><path d="M790 492.6L757 434.6L758 490.6Z" fill="#003843" stroke="#003843"></path><path d="M812 330.9L861 299L812 308.1Z" fill="#81871b" stroke="#81871b"></path><path d="M865 211.3L813 163.3L794 217.4Z" fill="#001e2f" stroke="#001e2f"></path><path d="M791 534.4L768 507.3L753 515.3Z" fill="#001122" stroke="#001122"></path><path d="M753 515.3L768 507.3L758 490.6Z" fill="#001e2f" stroke="#001e2f"></path><path d="M167 385.9L194 444.3L212 421.7Z" fill="#065f4b" stroke="#065f4b"></path><path d="M167 385.9L214 401.7L192 375.9Z" fill="#001e2f" stroke="#001e2f"></path><path d="M408 -35.1L375 0L423 0Z" fill="#002b3a" stroke="#002b3a"></path><path d="M423 0L375 0L421 26.7Z" fill="#226b44" stroke="#226b44"></path><path d="M375 0L293 45.9L334 120.6Z" fill="#001122" stroke="#001122"></path><path d="M151 280.9L162 302.7L206 300.1Z" fill="#5e802b" stroke="#5e802b"></path><path d="M791 534.4L790 492.6L768 507.3Z" fill="#003843" stroke="#003843"></path><path d="M768 507.3L790 492.6L758 490.6Z" fill="#003843" stroke="#003843"></path><path d="M293 45.9L264 67.9L266 90.4Z" fill="#81871b" stroke="#81871b"></path><path d="M266 90.4L236 89.6L241 155.3Z" fill="#226b44" stroke="#226b44"></path><path d="M798 106.6L765 94.6L745 174.1Z" fill="#001122" stroke="#001122"></path><path d="M726 96.4L749 49.9L708 90.9Z" fill="#3f7639" stroke="#3f7639"></path><path d="M813 163.3L745 174.1L794 217.4Z" fill="#004549" stroke="#004549"></path><path d="M234 547.4L242 535.3L180 490.1Z" fill="#3f7639" stroke="#3f7639"></path><path d="M215 474.4L242 535.3L298 497.4Z" fill="#81871b" stroke="#81871b"></path><path d="M162 302.7L167 385.9L192 375.9Z" fill="#81871b" stroke="#81871b"></path><path d="M857 272.1L774 283.3L812 308.1Z" fill="#004549" stroke="#004549"></path><path d="M656 0L656 98.4L663 0Z" fill="#001e2f" stroke="#001e2f"></path><path d="M601 0L610 -16.1L555 0Z" fill="#81871b" stroke="#81871b"></path><path d="M698 600L711 587.1L655 551.4Z" fill="#001122" stroke="#001122"></path><path d="M714 559.3L791 534.4L753 515.3Z" fill="#81871b" stroke="#81871b"></path><path d="M264 67.9L236 89.6L266 90.4Z" fill="#065f4b" stroke="#065f4b"></path><path d="M798 106.6L763 83.6L765 94.6Z" fill="#001e2f" stroke="#001e2f"></path><path d="M765 94.6L763 83.6L726 96.4Z" fill="#226b44" stroke="#226b44"></path><path d="M663 0L656 98.4L701 85.9Z" fill="#001122" stroke="#001122"></path><path d="M645 600L698 600L655 551.4Z" fill="#81871b" stroke="#81871b"></path><path d="M776 606.1L698 600L645 600Z" fill="#002b3a" stroke="#002b3a"></path><path d="M203 91.9L232 88.7L225 39.9Z" fill="#001e2f" stroke="#001e2f"></path><path d="M264 67.9L232 88.7L236 89.6Z" fill="#002b3a" stroke="#002b3a"></path><path d="M236 89.6L232 88.7L241 155.3Z" fill="#003843" stroke="#003843"></path><path d="M183 239.3L151 280.9L206 300.1Z" fill="#5e802b" stroke="#5e802b"></path><path d="M703 0L663 0L701 85.9Z" fill="#065f4b" stroke="#065f4b"></path><path d="M656 0L663 0L610 -16.1Z" fill="#004549" stroke="#004549"></path><path d="M253 563.3L298 598.1L317 557.1Z" fill="#3f7639" stroke="#3f7639"></path><path d="M133 237.3L151 280.9L183 239.3Z" fill="#226b44" stroke="#226b44"></path><path d="M162 302.7L120 362L167 385.9Z" fill="#00524c" stroke="#00524c"></path><path d="M234 547.4L253 563.3L242 535.3Z" fill="#001122" stroke="#001122"></path><path d="M242 535.3L253 563.3L317 557.1Z" fill="#81871b" stroke="#81871b"></path><path d="M698 600L712 597.1L711 587.1Z" fill="#3f7639" stroke="#3f7639"></path><path d="M711 587.1L779 600L714 559.3Z" fill="#065f4b" stroke="#065f4b"></path><path d="M253 563.3L294 600L298 598.1Z" fill="#81871b" stroke="#81871b"></path><path d="M298 598.1L294 600L365 600Z" fill="#003843" stroke="#003843"></path><path d="M365 600L123 639.1L369 600Z" fill="#065f4b" stroke="#065f4b"></path><path d="M180 490.1L242 535.3L215 474.4Z" fill="#00524c" stroke="#00524c"></path><path d="M253 563.3L264 600L294 600Z" fill="#065f4b" stroke="#065f4b"></path><path d="M180 490.1L215 474.4L194 444.3Z" fill="#001e2f" stroke="#001e2f"></path><path d="M861 299L812 330.9L829 351.6Z" fill="#003843" stroke="#003843"></path><path d="M861 299L857 272.1L812 308.1Z" fill="#004549" stroke="#004549"></path><path d="M776 606.1L715 600L698 600Z" fill="#001e2f" stroke="#001e2f"></path><path d="M698 600L715 600L712 597.1Z" fill="#001122" stroke="#001122"></path><path d="M712 597.1L715 600L711 587.1Z" fill="#00524c" stroke="#00524c"></path><path d="M144 182.3L220 207.1L241 155.3Z" fill="#004549" stroke="#004549"></path><path d="M884 290.9L861 299L900 330.7Z" fill="#00524c" stroke="#00524c"></path><path d="M477 -15.1L408 -35.1L423 0Z" fill="#00524c" stroke="#00524c"></path><path d="M375 0L315 0L293 45.9Z" fill="#81871b" stroke="#81871b"></path><path d="M258 0L225 39.9L264 67.9Z" fill="#00524c" stroke="#00524c"></path><path d="M610 -16.1L408 -35.1L477 -15.1Z" fill="#003843" stroke="#003843"></path><path d="M798 32.9L749 49.9L763 83.6Z" fill="#5e802b" stroke="#5e802b"></path><path d="M763 83.6L749 49.9L726 96.4Z" fill="#004549" stroke="#004549"></path><path d="M848 107.9L798 106.6L813 163.3Z" fill="#003843" stroke="#003843"></path><path d="M813 163.3L798 106.6L745 174.1Z" fill="#002b3a" stroke="#002b3a"></path><path d="M408 -35.1L315 0L375 0Z" fill="#001122" stroke="#001122"></path><path d="M779 600L791 534.4L714 559.3Z" fill="#065f4b" stroke="#065f4b"></path><path d="M790 492.6L859 402.7L783 421.4Z" fill="#004549" stroke="#004549"></path><path d="M101 270.1L136 298L151 280.9Z" fill="#065f4b" stroke="#065f4b"></path><path d="M151 280.9L136 298L162 302.7Z" fill="#001e2f" stroke="#001e2f"></path><path d="M160 472.6L194 444.3L167 385.9Z" fill="#001122" stroke="#001122"></path><path d="M160 472.6L180 490.1L194 444.3Z" fill="#001e2f" stroke="#001e2f"></path><path d="M900 410.4L859 402.7L900 487.3Z" fill="#5e802b" stroke="#5e802b"></path><path d="M232 88.7L203 91.9L241 155.3Z" fill="#00524c" stroke="#00524c"></path><path d="M225 39.9L232 88.7L264 67.9Z" fill="#00524c" stroke="#00524c"></path><path d="M721 8.7L703 0L701 85.9Z" fill="#5e802b" stroke="#5e802b"></path><path d="M663 0L703 0L610 -16.1Z" fill="#00524c" stroke="#00524c"></path><path d="M236 600L253 563.3L234 547.4Z" fill="#002b3a" stroke="#002b3a"></path><path d="M236 600L264 600L253 563.3Z" fill="#065f4b" stroke="#065f4b"></path><path d="M294 600L123 639.1L365 600Z" fill="#81871b" stroke="#81871b"></path><path d="M732 0L721 8.7L747 0Z" fill="#001122" stroke="#001122"></path><path d="M749 49.9L721 8.7L701 85.9Z" fill="#002b3a" stroke="#002b3a"></path><path d="M158 208.1L133 237.3L183 239.3Z" fill="#5e802b" stroke="#5e802b"></path><path d="M144 182.3L133 237.3L158 208.1Z" fill="#001e2f" stroke="#001e2f"></path><path d="M882 241L865 211.3L857 272.1Z" fill="#5e802b" stroke="#5e802b"></path><path d="M857 272.1L865 211.3L794 217.4Z" fill="#001122" stroke="#001122"></path><path d="M884 290.9L857 272.1L861 299Z" fill="#003843" stroke="#003843"></path><path d="M111 454.3L160 472.6L167 385.9Z" fill="#004549" stroke="#004549"></path><path d="M155 600L236 600L234 547.4Z" fill="#004549" stroke="#004549"></path><path d="M203 91.9L144 182.3L241 155.3Z" fill="#81871b" stroke="#81871b"></path><path d="M900 294.9L884 290.9L900 330.7Z" fill="#003843" stroke="#003843"></path><path d="M87 371L120 362L136 298Z" fill="#5e802b" stroke="#5e802b"></path><path d="M136 298L120 362L162 302.7Z" fill="#065f4b" stroke="#065f4b"></path><path d="M884 290.9L882 241L857 272.1Z" fill="#81871b" stroke="#81871b"></path><path d="M747 0L721 8.7L749 49.9Z" fill="#00524c" stroke="#00524c"></path><path d="M721 8.7L732 0L703 0Z" fill="#065f4b" stroke="#065f4b"></path><path d="M703 0L732 0L610 -16.1Z" fill="#3f7639" stroke="#3f7639"></path><path d="M747 0L749 49.9L798 32.9Z" fill="#004549" stroke="#004549"></path><path d="M258 0L264 67.9L293 45.9Z" fill="#5e802b" stroke="#5e802b"></path><path d="M203 91.9L129 146.6L144 182.3Z" fill="#226b44" stroke="#226b44"></path><path d="M155 600L234 547.4L132 575.1Z" fill="#00524c" stroke="#00524c"></path><path d="M264 600L123 639.1L294 600Z" fill="#002b3a" stroke="#002b3a"></path><path d="M408 -35.1L258 0L315 0Z" fill="#002b3a" stroke="#002b3a"></path><path d="M315 0L258 0L293 45.9Z" fill="#065f4b" stroke="#065f4b"></path><path d="M779 600L821 546.3L791 534.4Z" fill="#81871b" stroke="#81871b"></path><path d="M791 534.4L821 546.3L790 492.6Z" fill="#5e802b" stroke="#5e802b"></path><path d="M798 32.9L763 83.6L798 106.6Z" fill="#3f7639" stroke="#3f7639"></path><path d="M732 0L747 0L610 -16.1Z" fill="#002b3a" stroke="#002b3a"></path><path d="M848 107.9L813 163.3L873 157.4Z" fill="#002b3a" stroke="#002b3a"></path><path d="M143 485.4L148 494.6L160 472.6Z" fill="#5e802b" stroke="#5e802b"></path><path d="M160 472.6L148 494.6L180 490.1Z" fill="#00524c" stroke="#00524c"></path><path d="M111 454.3L143 485.4L160 472.6Z" fill="#5e802b" stroke="#5e802b"></path><path d="M884 290.9L900 248.4L882 241Z" fill="#065f4b" stroke="#065f4b"></path><path d="M900 330.7L861 299L829 351.6Z" fill="#81871b" stroke="#81871b"></path><path d="M900 330.7L829 351.6L900 371.6Z" fill="#065f4b" stroke="#065f4b"></path><path d="M900 371.6L829 351.6L859 402.7Z" fill="#226b44" stroke="#226b44"></path><path d="M900 294.9L900 288.1L884 290.9Z" fill="#065f4b" stroke="#065f4b"></path><path d="M776 606.1L779 600L715 600Z" fill="#81871b" stroke="#81871b"></path><path d="M715 600L779 600L711 587.1Z" fill="#226b44" stroke="#226b44"></path><path d="M873 157.4L865 211.3L900 152.3Z" fill="#002b3a" stroke="#002b3a"></path><path d="M873 157.4L813 163.3L865 211.3Z" fill="#002b3a" stroke="#002b3a"></path><path d="M900 237L865 211.3L882 241Z" fill="#004549" stroke="#004549"></path><path d="M123 639.1L539 600L526 600Z" fill="#001122" stroke="#001122"></path><path d="M779 600L788 605.1L821 546.3Z" fill="#002b3a" stroke="#002b3a"></path><path d="M123 639.1L526 600L419 601.1Z" fill="#81871b" stroke="#81871b"></path><path d="M900 410.4L900 371.6L859 402.7Z" fill="#001e2f" stroke="#001e2f"></path><path d="M102 237.4L101 270.1L133 237.3Z" fill="#5e802b" stroke="#5e802b"></path><path d="M133 237.3L101 270.1L151 280.9Z" fill="#003843" stroke="#003843"></path><path d="M100 446.6L111 454.3L167 385.9Z" fill="#001e2f" stroke="#001e2f"></path><path d="M900 288.1L900 248.4L884 290.9Z" fill="#065f4b" stroke="#065f4b"></path><path d="M239 0L219 22.7L225 39.9Z" fill="#00524c" stroke="#00524c"></path><path d="M225 39.9L167 49.7L203 91.9Z" fill="#5e802b" stroke="#5e802b"></path><path d="M92 206.4L102 237.4L133 237.3Z" fill="#065f4b" stroke="#065f4b"></path><path d="M900 248.4L900 237L882 241Z" fill="#001122" stroke="#001122"></path><path d="M92 206.4L133 237.3L144 182.3Z" fill="#00524c" stroke="#00524c"></path><path d="M848 107.9L798 32.9L798 106.6Z" fill="#81871b" stroke="#81871b"></path><path d="M121 142.3L129 146.6L117 124.7Z" fill="#81871b" stroke="#81871b"></path><path d="M258 0L239 0L225 39.9Z" fill="#065f4b" stroke="#065f4b"></path><path d="M84 -40.1L239 0L258 0Z" fill="#00524c" stroke="#00524c"></path><path d="M776 606.1L788 605.1L779 600Z" fill="#226b44" stroke="#226b44"></path><path d="M900 487.3L859 402.7L790 492.6Z" fill="#002b3a" stroke="#002b3a"></path><path d="M916 415.9L900 410.4L900 487.3Z" fill="#226b44" stroke="#226b44"></path><path d="M100 446.6L167 385.9L80 409.7Z" fill="#5e802b" stroke="#5e802b"></path><path d="M143 485.4L119 499.1L148 494.6Z" fill="#3f7639" stroke="#3f7639"></path><path d="M132 575.1L234 547.4L180 490.1Z" fill="#81871b" stroke="#81871b"></path><path d="M117 124.7L129 146.6L203 91.9Z" fill="#226b44" stroke="#226b44"></path><path d="M129 146.6L92 206.4L144 182.3Z" fill="#3f7639" stroke="#3f7639"></path><path d="M239 0L211 11.7L219 22.7Z" fill="#5e802b" stroke="#5e802b"></path><path d="M219 22.7L167 49.7L225 39.9Z" fill="#226b44" stroke="#226b44"></path><path d="M65 260.9L87 371L101 270.1Z" fill="#004549" stroke="#004549"></path><path d="M101 270.1L87 371L136 298Z" fill="#065f4b" stroke="#065f4b"></path><path d="M121 142.3L92 206.4L129 146.6Z" fill="#003843" stroke="#003843"></path><path d="M102 237.4L65 260.9L101 270.1Z" fill="#5e802b" stroke="#5e802b"></path><path d="M80 409.7L167 385.9L120 362Z" fill="#5e802b" stroke="#5e802b"></path><path d="M109 484.6L119 499.1L143 485.4Z" fill="#004549" stroke="#004549"></path><path d="M211 11.7L167 49.7L219 22.7Z" fill="#00524c" stroke="#00524c"></path><path d="M109 484.6L143 485.4L111 454.3Z" fill="#065f4b" stroke="#065f4b"></path><path d="M900 487.3L790 492.6L821 546.3Z" fill="#3f7639" stroke="#3f7639"></path><path d="M900 410.4L916 415.9L900 371.6Z" fill="#3f7639" stroke="#3f7639"></path><path d="M900 371.6L916 415.9L900 330.7Z" fill="#001122" stroke="#001122"></path><path d="M900 330.7L916 415.9L900 294.9Z" fill="#004549" stroke="#004549"></path><path d="M900 294.9L934 114.6L900 288.1Z" fill="#004549" stroke="#004549"></path><path d="M900 288.1L934 114.6L900 248.4Z" fill="#003843" stroke="#003843"></path><path d="M900 248.4L934 114.6L900 237Z" fill="#3f7639" stroke="#3f7639"></path><path d="M167 49.7L117 124.7L203 91.9Z" fill="#001e2f" stroke="#001e2f"></path><path d="M59 167.7L65 193.1L92 206.4Z" fill="#81871b" stroke="#81871b"></path><path d="M77 461.7L109 484.6L111 454.3Z" fill="#5e802b" stroke="#5e802b"></path><path d="M873 157.4L877 101.9L848 107.9Z" fill="#5e802b" stroke="#5e802b"></path><path d="M848 107.9L848 4.7L798 32.9Z" fill="#226b44" stroke="#226b44"></path><path d="M900 237L900 152.3L865 211.3Z" fill="#81871b" stroke="#81871b"></path><path d="M908 91.4L900 152.3L934 114.6Z" fill="#00524c" stroke="#00524c"></path><path d="M900 152.3L877 101.9L873 157.4Z" fill="#004549" stroke="#004549"></path><path d="M11 389.7L80 409.7L87 371Z" fill="#002b3a" stroke="#002b3a"></path><path d="M87 371L80 409.7L120 362Z" fill="#81871b" stroke="#81871b"></path><path d="M100 446.6L77 461.7L111 454.3Z" fill="#065f4b" stroke="#065f4b"></path><path d="M167 49.7L112 120.9L117 124.7Z" fill="#001e2f" stroke="#001e2f"></path><path d="M117 124.7L112 120.9L121 142.3Z" fill="#001e2f" stroke="#001e2f"></path><path d="M878 567.3L900 487.3L821 546.3Z" fill="#5e802b" stroke="#5e802b"></path><path d="M788 605.1L830 599.1L821 546.3Z" fill="#00524c" stroke="#00524c"></path><path d="M65 193.1L65 260.9L92 206.4Z" fill="#226b44" stroke="#226b44"></path><path d="M92 206.4L65 260.9L102 237.4Z" fill="#065f4b" stroke="#065f4b"></path><path d="M848 4.7L824 0L798 32.9Z" fill="#001e2f" stroke="#001e2f"></path><path d="M798 32.9L824 0L747 0Z" fill="#001e2f" stroke="#001e2f"></path><path d="M747 0L824 0L610 -16.1Z" fill="#003843" stroke="#003843"></path><path d="M610 -16.1L900 0L408 -35.1Z" fill="#81871b" stroke="#81871b"></path><path d="M239 0L177 0L211 11.7Z" fill="#002b3a" stroke="#002b3a"></path><path d="M211 11.7L177 0L167 49.7Z" fill="#226b44" stroke="#226b44"></path><path d="M167 49.7L80 78.6L112 120.9Z" fill="#001122" stroke="#001122"></path><path d="M84 -40.1L177 0L239 0Z" fill="#3f7639" stroke="#3f7639"></path><path d="M14 442.6L77 461.7L80 409.7Z" fill="#001122" stroke="#001122"></path><path d="M80 409.7L77 461.7L100 446.6Z" fill="#001122" stroke="#001122"></path><path d="M109 484.6L85 534.4L119 499.1Z" fill="#5e802b" stroke="#5e802b"></path><path d="M132 575.1L180 490.1L148 494.6Z" fill="#226b44" stroke="#226b44"></path><path d="M236 600L123 639.1L264 600Z" fill="#004549" stroke="#004549"></path><path d="M132 575.1L148 494.6L119 499.1Z" fill="#3f7639" stroke="#3f7639"></path><path d="M59 167.7L92 206.4L121 142.3Z" fill="#001122" stroke="#001122"></path><path d="M58 192.4L65 193.1L59 167.7Z" fill="#226b44" stroke="#226b44"></path><path d="M85 534.4L132 575.1L119 499.1Z" fill="#004549" stroke="#004549"></path><path d="M830 599.1L878 567.3L821 546.3Z" fill="#002b3a" stroke="#002b3a"></path><path d="M908 91.4L900 87.6L877 101.9Z" fill="#81871b" stroke="#81871b"></path><path d="M900 59.7L848 4.7L848 107.9Z" fill="#00524c" stroke="#00524c"></path><path d="M908 91.4L877 101.9L900 152.3Z" fill="#001e2f" stroke="#001e2f"></path><path d="M77 600L133 584.3L132 575.1Z" fill="#004549" stroke="#004549"></path><path d="M132 575.1L133 584.3L155 600Z" fill="#226b44" stroke="#226b44"></path><path d="M56 192.1L58 192.4L59 167.7Z" fill="#001122" stroke="#001122"></path><path d="M65 193.1L58 192.4L65 260.9Z" fill="#00524c" stroke="#00524c"></path><path d="M65 260.9L19 289.9L87 371Z" fill="#001e2f" stroke="#001e2f"></path><path d="M900 620.1L861 600L830 599.1Z" fill="#065f4b" stroke="#065f4b"></path><path d="M830 599.1L861 600L878 567.3Z" fill="#002b3a" stroke="#002b3a"></path><path d="M886 600L861 600L900 620.1Z" fill="#004549" stroke="#004549"></path><path d="M59 167.7L121 142.3L112 120.9Z" fill="#226b44" stroke="#226b44"></path><path d="M58 192.4L56 192.1L65 260.9Z" fill="#81871b" stroke="#81871b"></path><path d="M84 -40.1L161 0L177 0Z" fill="#5e802b" stroke="#5e802b"></path><path d="M177 0L161 0L167 49.7Z" fill="#226b44" stroke="#226b44"></path><path d="M934 114.6L900 152.3L900 237Z" fill="#226b44" stroke="#226b44"></path><path d="M900 59.7L848 107.9L877 101.9Z" fill="#001e2f" stroke="#001e2f"></path><path d="M900 68.9L877 101.9L900 87.6Z" fill="#3f7639" stroke="#3f7639"></path><path d="M80 78.6L59 167.7L112 120.9Z" fill="#004549" stroke="#004549"></path><path d="M908 91.4L900 68.9L900 87.6Z" fill="#065f4b" stroke="#065f4b"></path><path d="M84 -40.1L151 0L161 0Z" fill="#065f4b" stroke="#065f4b"></path><path d="M161 0L151 0L167 49.7Z" fill="#003843" stroke="#003843"></path><path d="M931 65.7L900 59.7L900 68.9Z" fill="#001e2f" stroke="#001e2f"></path><path d="M900 68.9L900 59.7L877 101.9Z" fill="#81871b" stroke="#81871b"></path><path d="M77 461.7L85 534.4L109 484.6Z" fill="#001122" stroke="#001122"></path><path d="M916 415.9L934 114.6L900 294.9Z" fill="#3f7639" stroke="#3f7639"></path><path d="M908 91.4L931 65.7L900 68.9Z" fill="#001122" stroke="#001122"></path><path d="M861 600L886 600L878 567.3Z" fill="#003843" stroke="#003843"></path><path d="M878 567.3L900 600L900 487.3Z" fill="#004549" stroke="#004549"></path><path d="M900 487.3L900 600L916 415.9Z" fill="#001e2f" stroke="#001e2f"></path><path d="M900 600L886 600L900 620.1Z" fill="#5e802b" stroke="#5e802b"></path><path d="M151 0L80 78.6L167 49.7Z" fill="#00524c" stroke="#00524c"></path><path d="M19 289.9L0 272.1L0 275.9Z" fill="#00524c" stroke="#00524c"></path><path d="M0 283.3L19 289.9L0 275.9Z" fill="#065f4b" stroke="#065f4b"></path><path d="M77 461.7L29 536.3L85 534.4Z" fill="#3f7639" stroke="#3f7639"></path><path d="M65 260.9L0 272.1L19 289.9Z" fill="#003843" stroke="#003843"></path><path d="M900 620.1L830 599.1L788 605.1Z" fill="#001122" stroke="#001122"></path><path d="M886 600L900 600L878 567.3Z" fill="#001e2f" stroke="#001e2f"></path><path d="M934 114.6L931 65.7L908 91.4Z" fill="#226b44" stroke="#226b44"></path><path d="M900 59.7L895 0L848 4.7Z" fill="#004549" stroke="#004549"></path><path d="M0 374L11 389.7L87 371Z" fill="#003843" stroke="#003843"></path><path d="M133 584.3L123 639.1L155 600Z" fill="#5e802b" stroke="#5e802b"></path><path d="M155 600L123 639.1L236 600Z" fill="#3f7639" stroke="#3f7639"></path><path d="M776 606.1L900 620.1L788 605.1Z" fill="#001e2f" stroke="#001e2f"></path><path d="M77 600L123 639.1L133 584.3Z" fill="#81871b" stroke="#81871b"></path><path d="M77 600L132 575.1L85 534.4Z" fill="#001e2f" stroke="#001e2f"></path><path d="M900 0L895 0L900 59.7Z" fill="#004549" stroke="#004549"></path><path d="M848 4.7L895 0L824 0Z" fill="#004549" stroke="#004549"></path><path d="M824 0L895 0L610 -16.1Z" fill="#81871b" stroke="#81871b"></path><path d="M65 260.9L0 232.4L0 272.1Z" fill="#00524c" stroke="#00524c"></path><path d="M19 289.9L0 374L87 371Z" fill="#002b3a" stroke="#002b3a"></path><path d="M65 260.9L56 192.1L0 232.4Z" fill="#3f7639" stroke="#3f7639"></path><path d="M0 232.4L56 192.1L-26 210.4Z" fill="#226b44" stroke="#226b44"></path><path d="M123 639.1L900 620.1L596 600Z" fill="#003843" stroke="#003843"></path><path d="M900 600L900 620.1L916 415.9Z" fill="#00524c" stroke="#00524c"></path><path d="M0 412.7L14 442.6L11 389.7Z" fill="#226b44" stroke="#226b44"></path><path d="M11 389.7L14 442.6L80 409.7Z" fill="#065f4b" stroke="#065f4b"></path><path d="M0 283.3L0 374L19 289.9Z" fill="#00524c" stroke="#00524c"></path><path d="M931 65.7L900 0L900 59.7Z" fill="#004549" stroke="#004549"></path><path d="M895 0L900 0L610 -16.1Z" fill="#81871b" stroke="#81871b"></path><path d="M-26 210.4L56 192.1L59 167.7Z" fill="#065f4b" stroke="#065f4b"></path><path d="M0 374L0 412.7L11 389.7Z" fill="#00524c" stroke="#00524c"></path><path d="M6 456.4L77 461.7L14 442.6Z" fill="#002b3a" stroke="#002b3a"></path><path d="M67 600L77 600L85 534.4Z" fill="#002b3a" stroke="#002b3a"></path><path d="M0 412.7L6 456.4L14 442.6Z" fill="#81871b" stroke="#81871b"></path><path d="M29 536.3L67 600L85 534.4Z" fill="#002b3a" stroke="#002b3a"></path><path d="M77 600L67 600L123 639.1Z" fill="#5e802b" stroke="#5e802b"></path><path d="M6 486.1L29 536.3L77 461.7Z" fill="#00524c" stroke="#00524c"></path><path d="M0 412.7L0 463.4L6 456.4Z" fill="#001e2f" stroke="#001e2f"></path><path d="M6 456.4L6 486.1L77 461.7Z" fill="#3f7639" stroke="#3f7639"></path><path d="M0 474.1L6 486.1L6 456.4Z" fill="#001122" stroke="#001122"></path><path d="M0 463.4L0 474.1L6 456.4Z" fill="#226b44" stroke="#226b44"></path><path d="M6 486.1L0 556.3L29 536.3Z" fill="#81871b" stroke="#81871b"></path><path d="M0 474.1L0 482.6L6 486.1Z" fill="#004549" stroke="#004549"></path><path d="M-12 93.9L-26 210.4L59 167.7Z" fill="#001e2f" stroke="#001e2f"></path><path d="M0 232.4L-26 210.4L0 272.1Z" fill="#002b3a" stroke="#002b3a"></path><path d="M0 272.1L-26 210.4L0 275.9Z" fill="#001122" stroke="#001122"></path><path d="M0 275.9L-26 210.4L0 283.3Z" fill="#226b44" stroke="#226b44"></path><path d="M0 283.3L-26 210.4L0 374Z" fill="#001122" stroke="#001122"></path><path d="M0 374L-26 210.4L0 412.7Z" fill="#002b3a" stroke="#002b3a"></path><path d="M0 412.7L-26 210.4L0 463.4Z" fill="#003843" stroke="#003843"></path><path d="M0 463.4L-26 210.4L0 474.1Z" fill="#002b3a" stroke="#002b3a"></path><path d="M0 474.1L-26 210.4L0 482.6Z" fill="#001e2f" stroke="#001e2f"></path><path d="M408 -35.1L84 -40.1L258 0Z" fill="#81871b" stroke="#81871b"></path><path d="M151 0L84 -40.1L80 78.6Z" fill="#5e802b" stroke="#5e802b"></path><path d="M80 78.6L0 92.6L59 167.7Z" fill="#065f4b" stroke="#065f4b"></path><path d="M15 59.6L12 68.7L80 78.6Z" fill="#002b3a" stroke="#002b3a"></path><path d="M12 68.7L0 92.6L80 78.6Z" fill="#00524c" stroke="#00524c"></path><path d="M35 0L15 59.6L80 78.6Z" fill="#003843" stroke="#003843"></path><path d="M-14 62.6L-12 93.9L0 92.6Z" fill="#001122" stroke="#001122"></path><path d="M0 556.3L16 568.3L29 536.3Z" fill="#5e802b" stroke="#5e802b"></path><path d="M29 536.3L16 568.3L67 600Z" fill="#5e802b" stroke="#5e802b"></path><path d="M67 600L30 600L123 639.1Z" fill="#004549" stroke="#004549"></path><path d="M16 568.3L30 600L67 600Z" fill="#004549" stroke="#004549"></path><path d="M0 482.6L0 556.3L6 486.1Z" fill="#004549" stroke="#004549"></path><path d="M16 568.3L0 600L30 600Z" fill="#226b44" stroke="#226b44"></path><path d="M-26 210.4L0 556.3L0 482.6Z" fill="#001122" stroke="#001122"></path><path d="M-14 62.6L12 68.7L15 59.6Z" fill="#065f4b" stroke="#065f4b"></path><path d="M-14 62.6L0 92.6L12 68.7Z" fill="#001122" stroke="#001122"></path><path d="M0 92.6L-12 93.9L59 167.7Z" fill="#81871b" stroke="#81871b"></path><path d="M84 -40.1L35 0L80 78.6Z" fill="#004549" stroke="#004549"></path><path d="M35 0L0 37.9L15 59.6Z" fill="#81871b" stroke="#81871b"></path><path d="M0 37.9L-14 62.6L15 59.6Z" fill="#00524c" stroke="#00524c"></path><path d="M-12 93.9L-14 62.6L-26 210.4Z" fill="#226b44" stroke="#226b44"></path><path d="M-26 210.4L0 600L0 556.3Z" fill="#00524c" stroke="#00524c"></path><path d="M0 556.3L0 600L16 568.3Z" fill="#065f4b" stroke="#065f4b"></path><path d="M30 600L0 600L123 639.1Z" fill="#81871b" stroke="#81871b"></path><path d="M35 0L0 13.7L0 37.9Z" fill="#003843" stroke="#003843"></path><path d="M0 37.9L0 13.7L-14 62.6Z" fill="#001122" stroke="#001122"></path><path d="M0 0L0 13.7L35 0Z" fill="#226b44" stroke="#226b44"></path><path d="M84 -40.1L0 0L35 0Z" fill="#00524c" stroke="#00524c"></path><path d="M0 13.7L0 0L-14 62.6Z" fill="#00524c" stroke="#00524c"></path></g></svg>